<svg xmlns="http://www.w3.org/2000/svg" width="540" height="463" viewBox="0 0 540 463" version="1.1"><path d="M 337.567 17.206 C 336.174 20.559, 312.372 82.235, 301.949 109.500 C 281.802 162.200, 277.395 173.711, 269.892 193.227 L 261.539 214.955 259.519 212.533 C 250.096 201.231, 190.427 137.176, 189.862 137.755 C 189.461 138.165, 183.042 149.023, 175.599 161.884 C 168.155 174.746, 161.807 185.526, 161.492 185.841 C 161.177 186.156, 128.312 153.810, 88.460 113.960 L 16 41.505 16 246.253 L 16 451 268.500 451 L 521 451 521 246.753 L 521 42.507 465.062 98.438 C 411.329 152.164, 409.082 154.272, 408.025 151.934 C 407.420 150.595, 394.843 119.125, 380.076 82 L 353.228 14.500 346.082 14.206 L 338.935 13.911 337.567 17.206 M 341.015 67.250 C 338.645 73.438, 335.675 81.200, 334.416 84.500 C 306.715 157.119, 269.784 252.602, 269.152 253.240 C 268.749 253.647, 251.834 235.774, 231.563 213.522 C 211.292 191.270, 194.371 173.271, 193.961 173.524 C 193.551 173.777, 189.527 180.360, 185.018 188.151 L 176.820 202.317 222.909 248.406 L 268.998 294.496 330.499 233.001 C 364.325 199.179, 392 171.083, 392 170.566 C 392 168.780, 346.762 56, 346.045 56 C 345.649 56, 343.386 61.063, 341.015 67.250 M 458.750 134.750 C 436.337 157.167, 418 175.922, 418 176.427 C 418 176.932, 436.337 223.474, 458.750 279.854 L 499.500 382.363 499.757 310.181 C 499.898 270.482, 499.898 205.598, 499.757 165.995 L 499.500 93.991 458.750 134.750 M 38.017 247.003 C 38.033 396.506, 38.070 399.441, 39.908 396.500 C 40.939 394.850, 65.959 351.650, 95.507 300.500 C 125.056 249.350, 149.379 207.248, 149.558 206.939 C 149.738 206.630, 124.711 181.207, 93.942 150.442 L 38 94.507 38.017 247.003 M 334.597 259.250 L 269.026 325.500 217.241 273.731 L 165.455 221.963 117.006 305.731 C 90.360 351.804, 63.345 398.500, 56.975 409.500 L 45.392 429.500 157.616 429.754 C 219.339 429.894, 320.620 429.894, 382.685 429.754 L 495.530 429.500 448.515 311.270 C 422.657 246.243, 401.200 193.031, 400.834 193.020 C 400.468 193.009, 370.661 222.813, 334.597 259.250" stroke="none" fill="#3E4653" fill-rule="evenodd"/><path d="" stroke="none" fill="#3E4653" fill-rule="evenodd"/><path d="" stroke="none" fill="#3E4653" fill-rule="evenodd"/></svg>